<svg width="150" height="149" viewBox="0 0 150 149" fill="none" xmlns="http://www.w3.org/2000/svg">
<g clip-path="url(#clip0_99_101)">
<path d="M45.4661 78.2593V104.323L104.68 86.6187L108.848 85.3908C116.078 82.0808 122.291 76.9029 126.847 70.3924C127.194 69.8791 127.541 69.3588 127.875 68.8246C133.98 58.9678 136.042 47.1387 133.63 35.8016C131.219 24.4645 124.521 14.4936 114.931 7.9659C105.341 1.4382 93.5988 -1.14286 82.1506 0.760352C70.7023 2.66357 60.4308 8.90433 53.4757 18.1826C53.1214 18.6543 52.781 19.133 52.4545 19.6116C48.7384 25.1453 46.332 31.4509 45.4175 38.0509L45.4939 78.287L45.4661 78.2593ZM74.1351 33.0908C76.4406 29.995 79.6134 27.6514 83.2525 26.3564C86.8915 25.0613 90.8334 24.8729 94.5797 25.815C98.326 26.7571 101.708 28.7874 104.299 31.6491C106.89 34.5108 108.573 38.0754 109.136 41.8923C109.698 45.7092 109.115 49.6069 107.459 53.0926C105.803 56.5783 103.15 59.4955 99.8339 61.4753C96.5181 63.4551 92.689 64.4085 88.8306 64.2152C84.9722 64.0218 81.2579 62.6902 78.1573 60.3889C76.098 58.8604 74.3604 56.9419 73.0438 54.7427C71.7271 52.5435 70.8572 50.1068 70.4837 47.5719C70.1102 45.0369 70.2404 42.4533 70.8669 39.9686C71.4935 37.4839 72.604 35.1468 74.1351 33.0908Z" fill="#3A859A"/>
<path d="M123.29 95.658L109.459 89.0121L45.4661 108.263V108.436L8.34992 97.1773L0.0138855 124.635L39.1655 136.512C43.3499 137.781 47.6992 138.426 52.0724 138.426C54.8238 138.426 57.5482 137.885 60.0901 136.834C62.632 135.782 64.9417 134.241 66.8872 132.298C68.8327 130.355 70.3759 128.049 71.4288 125.51C72.4817 122.972 73.0237 120.251 73.0237 117.503V99.9938L102.262 114.34C105.901 116.148 109.142 118.661 111.796 121.735C114.449 124.808 116.463 128.379 117.719 132.238L123.172 148.673H150L137.308 111.746C134.941 104.748 129.903 98.9662 123.29 95.658Z" fill="#3A859A"/>
<path d="M68.55 0H45.4036V48.4291H68.55V0Z" fill="#3A859A"/>
</g>
<defs>
<clipPath id="clip0_99_101">
<rect width="150" height="148.673" fill="white"/>
</clipPath>
</defs>
</svg>
