<svg width="90" height="91" viewBox="0 0 90 91" fill="none" xmlns="http://www.w3.org/2000/svg">
<path fill-rule="evenodd" clip-rule="evenodd" d="M45 86.0977C67.3672 86.0977 85.5 67.9649 85.5 45.5977C85.5 23.2304 67.3672 5.09766 45 5.09766C22.6327 5.09766 4.5 23.2304 4.5 45.5977C4.5 67.9649 22.6327 86.0977 45 86.0977ZM45 90.5977C69.8535 90.5977 90 70.4512 90 45.5977C90 20.7442 69.8535 0.597656 45 0.597656C20.1465 0.597656 0 20.7442 0 45.5977C0 70.4512 20.1465 90.5977 45 90.5977Z" fill="#1E1E1E"/>
<path d="M18 71.7651C18 69.4409 19.737 67.4766 22.05 67.2201C39.4088 65.2986 50.67 65.4719 67.9905 67.2629C68.8554 67.3537 69.6752 67.6945 70.3496 68.2435C71.0241 68.7925 71.5241 69.5261 71.7885 70.3547C72.0529 71.1832 72.0702 72.0708 71.8385 72.909C71.6068 73.7472 71.1359 74.4998 70.4835 75.0749C50.0423 92.8926 38.3603 92.6474 19.44 75.0929C18.5175 74.2379 18 73.0206 18 71.7651Z" fill="#1E1E1E"/>
<path fill-rule="evenodd" clip-rule="evenodd" d="M67.7588 69.4995C50.5755 67.722 39.4763 67.5555 22.2953 69.4568C21.7297 69.5227 21.2083 69.7949 20.831 70.2212C20.4536 70.6476 20.2467 71.1982 20.25 71.7675C20.25 72.411 20.5178 73.0208 20.97 73.4438C30.348 82.1423 37.4535 86.073 44.3993 86.0978C51.3698 86.1225 58.8578 82.2233 69.0053 73.3808C69.3276 73.0938 69.5597 72.7194 69.6733 72.3031C69.7868 71.8867 69.777 71.4463 69.645 71.0354C69.513 70.6245 69.2644 70.2609 68.9295 69.9886C68.5947 69.7163 68.1879 69.545 67.7588 69.4995ZM21.8025 64.9838C39.3435 63.042 50.769 63.2175 68.2245 65.0243C69.5257 65.1601 70.759 65.6723 71.7736 66.4983C72.7881 67.3243 73.5398 68.4281 73.9366 69.6748C74.3335 70.9214 74.3582 72.2566 74.0079 73.5171C73.6575 74.7776 72.9472 75.9085 71.964 76.7715C61.6703 85.7445 53.0978 90.6315 44.3858 90.5978C35.649 90.5663 27.4545 85.596 17.9123 76.7423C17.2291 76.1059 16.6844 75.3355 16.3124 74.4791C15.9403 73.6228 15.7489 72.6989 15.75 71.7653C15.7467 70.0877 16.3625 68.468 17.4793 67.2162C18.5961 65.9645 20.1355 65.171 21.8025 64.9838Z" fill="#1E1E1E"/>
<path d="M63 36.5977C63 41.3716 61.1036 45.9499 57.7279 49.3256C54.3523 52.7012 49.7739 54.5977 45 54.5977C40.2261 54.5977 35.6477 52.7012 32.2721 49.3256C28.8964 45.9499 27 41.3716 27 36.5977C27 31.8238 28.8964 27.2454 32.2721 23.8697C35.6477 20.4941 40.2261 18.5977 45 18.5977C49.7739 18.5977 54.3523 20.4941 57.7279 23.8697C61.1036 27.2454 63 31.8238 63 36.5977Z" fill="#1E1E1E"/>
<path fill-rule="evenodd" clip-rule="evenodd" d="M45 50.0977C48.5804 50.0977 52.0142 48.6753 54.5459 46.1436C57.0777 43.6119 58.5 40.1781 58.5 36.5977C58.5 33.0172 57.0777 29.5835 54.5459 27.0517C52.0142 24.52 48.5804 23.0977 45 23.0977C41.4196 23.0977 37.9858 24.52 35.4541 27.0517C32.9223 29.5835 31.5 33.0172 31.5 36.5977C31.5 40.1781 32.9223 43.6119 35.4541 46.1436C37.9858 48.6753 41.4196 50.0977 45 50.0977ZM45 54.5977C49.7739 54.5977 54.3523 52.7012 57.7279 49.3256C61.1036 45.9499 63 41.3716 63 36.5977C63 31.8238 61.1036 27.2454 57.7279 23.8697C54.3523 20.4941 49.7739 18.5977 45 18.5977C40.2261 18.5977 35.6477 20.4941 32.2721 23.8697C28.8964 27.2454 27 31.8238 27 36.5977C27 41.3716 28.8964 45.9499 32.2721 49.3256C35.6477 52.7012 40.2261 54.5977 45 54.5977Z" fill="#1E1E1E"/>
</svg>
